<svg width="51" height="71" viewBox="0 0 51 71" fill="none" xmlns="http://www.w3.org/2000/svg">
<path d="M23 0C24.7554 -1.20779e-07 30.5746 -0.00186448 36.4053 1.89941C42.2405 3.80228 48.1814 7.64753 49.9873 15.3867C51.9411 23.7606 50.3742 30.1035 47.2217 34.7646C44.0801 39.4095 39.3963 42.338 35.1807 43.9668C14.8394 51.8259 7.91275 64.7822 5.91602 67.7773C4.85735 69.3653 3.44598 70.1533 2.1875 69.9961C1.55286 69.9166 0.99265 69.5951 0.598633 69.0635C0.208491 68.5367 1.52975e-05 67.831 0 67V49.1289C2.31904 37.8484 18.9471 30.2528 28.5254 30.0059L29 30C34.5228 29.9999 39 25.5228 39 20C39 14.4772 34.5228 10.0001 29 10C23.4772 10.0001 19 14.4772 19 20C19 22.8153 20.1648 25.3575 22.0371 27.1748C12.1062 29.3097 2.07864 36.096 0 41.5V13.5C1.88687e-05 8.39628 1.5359 4.98069 4.1875 2.85938C6.81673 0.756039 10.4527 2.08034e-05 14.5 0H23Z" fill="url(#paint0_linear_46_60)"/>
<defs>
<linearGradient id="paint0_linear_46_60" x1="25.4237" y1="0" x2="2" y2="70" gradientUnits="userSpaceOnUse">
<stop stop-color="#2E7D5A"/>
<stop offset="1" stop-color="#51A07D"/>
</linearGradient>
</defs>
</svg>
